<svg xmlns="http://www.w3.org/2000/svg" xmlns:xlink="http://www.w3.org/1999/xlink" width="250" zoomAndPan="magnify" viewBox="0 0 187.5 37.5" height="50" preserveAspectRatio="xMidYMid meet" version="1.0"><defs><g/><clipPath id="ab61ea1da1"><path d="M 92.894531 15.953125 L 108.59375 15.953125 L 108.59375 21.152344 L 92.894531 21.152344 Z M 92.894531 15.953125 " clip-rule="nonzero"/></clipPath></defs><g clip-path="url(#ab61ea1da1)"><path fill="#152039" d="M 92.894531 15.953125 L 108.59375 15.953125 L 108.59375 21.152344 L 92.894531 21.152344 Z M 92.894531 15.953125 " fill-opacity="1" fill-rule="nonzero"/></g><g fill="#f3f6fa" fill-opacity="1"><g transform="translate(7.387619, 34.910732)"><g><path d="M 17.417969 -20.191406 L 8.753906 -32.949219 L 2.355469 -32.949219 L 2.355469 0 L 10.402344 0 L 10.402344 -16.378906 L 15.15625 -9.273438 L 19.628906 -9.273438 L 24.382812 -16.285156 L 24.382812 0 L 32.382812 0 L 32.382812 -32.949219 L 26.078125 -32.949219 Z M 17.417969 -20.191406 "/></g></g></g><g fill="#f3f6fa" fill-opacity="1"><g transform="translate(42.299344, 34.910732)"><g><path d="M 2.355469 -33.230469 L 2.355469 0 L 24.101562 0 L 24.101562 -7.765625 L 10.449219 -7.765625 L 10.449219 -13.039062 L 23.769531 -13.039062 L 23.769531 -20.851562 L 10.449219 -20.851562 L 10.449219 -25.464844 L 24.054688 -25.464844 L 24.054688 -33.230469 Z M 2.355469 -33.230469 "/></g></g></g><g fill="#f3f6fa" fill-opacity="1"><g transform="translate(68.553713, 34.910732)"><g><path d="M 15.390625 -32.949219 L 2.304688 -32.949219 L 2.304688 0 L 15.390625 0 C 26.265625 0 31.726562 -8.191406 31.726562 -16.425781 C 31.726562 -24.664062 26.265625 -32.949219 15.390625 -32.949219 Z M 15.390625 -7.671875 L 10.308594 -7.671875 L 10.308594 -25.324219 L 15.390625 -25.324219 C 20.945312 -25.324219 23.769531 -20.757812 23.769531 -16.425781 C 23.769531 -12.097656 20.945312 -7.671875 15.390625 -7.671875 Z M 15.390625 -7.671875 "/></g></g></g><g fill="#f3f6fa" fill-opacity="1"><g transform="translate(101.677498, 34.910732)"><g><path d="M 2.355469 -33.230469 L 2.355469 0 L 24.101562 0 L 24.101562 -7.765625 L 10.449219 -7.765625 L 10.449219 -13.039062 L 23.769531 -13.039062 L 23.769531 -20.851562 L 10.449219 -20.851562 L 10.449219 -25.464844 L 24.054688 -25.464844 L 24.054688 -33.230469 Z M 2.355469 -33.230469 "/></g></g></g><g fill="#f14902" fill-opacity="1"><g transform="translate(132.430562, 29.908634)"><g><path d="M 13.839844 -22.953125 L -0.65625 -22.953125 L -0.65625 0 L 13.773438 0 C 17.96875 0 21.050781 -2.917969 21.050781 -7.117188 C 21.050781 -9.835938 19.640625 -11.511719 17.050781 -12.492188 C 18.921875 -13.148438 19.871094 -14.921875 19.871094 -16.824219 C 19.871094 -20.167969 17.183594 -22.953125 13.839844 -22.953125 Z M 9.96875 -14.429688 L 8.296875 -14.429688 L 8.296875 -16.824219 L 9.96875 -16.824219 C 10.789062 -16.824219 11.148438 -16.230469 11.148438 -15.640625 C 11.148438 -15.050781 10.757812 -14.429688 9.96875 -14.429688 Z M 10.527344 -6.296875 L 8.296875 -6.296875 L 8.296875 -9.183594 L 10.527344 -9.183594 C 11.707031 -9.183594 12.164062 -8.460938 12.164062 -7.738281 C 12.164062 -7.015625 11.675781 -6.296875 10.527344 -6.296875 Z M 10.527344 -6.296875 "/></g></g></g><g fill="#f14902" fill-opacity="1"><g transform="translate(155.286574, 29.908634)"><g><path d="M 10.066406 -22.953125 L -0.65625 -22.953125 L -0.65625 0 L 10.066406 0 C 16.757812 0 22.988281 -2.6875 22.988281 -11.445312 C 22.988281 -20.199219 16.789062 -22.953125 10.066406 -22.953125 Z M 10.066406 -7.015625 L 8.261719 -7.015625 L 8.261719 -15.9375 L 10.066406 -15.9375 C 12.722656 -15.9375 14.035156 -13.675781 14.035156 -11.410156 C 14.035156 -9.214844 12.691406 -7.015625 10.066406 -7.015625 Z M 10.066406 -7.015625 "/></g></g></g></svg>